<svg xmlns="http://www.w3.org/2000/svg" viewBox="0 0 64 64" role="img" aria-labelledby="title desc">
  <title id="title">Antonio Pereira Web favicon</title>
  <desc id="desc">A white map pin on a near-black tile with restrained blue, red, yellow, and green corner markers.</desc>
  <rect x="4" y="4" width="56" height="56" rx="18" fill="#0d1726"/>
  <rect x="4.75" y="4.75" width="54.5" height="54.5" rx="17.25" fill="none" stroke="#ffffff" stroke-opacity="0.18"/>
  <rect x="11" y="11" width="9" height="9" rx="4.5" fill="#0b57d0"/>
  <rect x="44" y="11" width="9" height="9" rx="4.5" fill="#d93025"/>
  <rect x="11" y="44" width="9" height="9" rx="4.5" fill="#f9ab00"/>
  <rect x="44" y="44" width="9" height="9" rx="4.5" fill="#137a49"/>
  <path fill="#ffffff" d="M32 15.5c-8.2 0-14.5 5.92-14.5 13.8 0 9.96 10.34 18.85 13.15 21.04.8.62 1.9.62 2.7 0 2.81-2.19 13.15-11.08 13.15-21.04 0-7.88-6.3-13.8-14.5-13.8Z"/>
  <circle cx="32" cy="29.2" r="6.65" fill="#0d1726"/>
</svg>
